#!OML:ASF E:\acrobat2\Project_11_07_03\Capture day 1\Session 1\Acrobat.ASF
:FULLY-SPECIFIED
:DEGREES
177
root 7.75778 19.6956 0.126967 16.1201 -48.8237 -6.99126
lowerback 8.95499 4.18834 7.6986
upperback 2.94891 6.17276 1.00218
thorax -1.21737 3.07745 -3.82035
lowerneck -6.02234 3.34473 1.44544
upperneck 13.2067 5.10423 -5.9376
head 5.15007 2.16825 -1.76134
rclavicle -9.34288e-015 3.49861e-014
rhumerus 76.4477 4.77669 3.02704
rradius 77.451
rwrist -18.696
rhand -4.84366 -42.0189
rfingers 7.12502
rthumb 20.9436 -70.9082
lclavicle -9.34288e-015 3.49861e-014
lhumerus -86.7528 -41.9038 64.7234
lradius 16.48
lwrist 9.15277
lhand -0.143475 -16.3043
lfingers 7.12502
lthumb 25.4529 12.0162
rfemur -1.02462 -5.58259 16.3806
rtibia 14.6015
rfoot 7.05447 -5.99271
rtoes -55.9472
lfemur -43.5596 6.47095 -9.85079
ltibia 48.4129
lfoot 5.19639 1.80981
ltoes 24.5616
178
root 7.74758 19.522 0.20746 16.5502 -48.2199 -7.76971
lowerback 9.124 3.94682 7.86976
upperback 3.17819 5.87216 1.60914
thorax -1.15372 2.92727 -3.26895
lowerneck -6.96974 3.24067 1.94133
upperneck 14.7463 5.17047 -7.19798
head 5.83989 2.08201 -2.21751
rclavicle -4.03533e-014 2.38542e-015
rhumerus 78.9814 5.2288 -0.456453
rradius 75.5036
rwrist -16.9438
rhand -2.65198 -42.3776
rfingers 7.12502
rthumb 23.0479 -71.0194
lclavicle -4.03533e-014 2.38542e-015
lhumerus -85.775 -39.7236 62.3773
lradius 15.3249
lwrist 7.25074
lhand -0.464033 -15.9715
lfingers 7.12502
lthumb 25.1458 12.3924
rfemur -0.967423 -8.03418 16.2086
rtibia 17.0059
rfoot 4.78452 -4.70967
rtoes -57.9855
lfemur -44.1875 6.52936 -9.97472
ltibia 49.4086
lfoot 4.54616 0.803845
ltoes 24.5311
179
root 7.73732 19.3086 0.295351 17.2295 -47.7085 -8.70472
lowerback 9.02844 3.84716 8.42457
upperback 3.55574 5.74715 2.01418
thorax -0.703384 2.88719 -3.11587
lowerneck -7.41566 3.08294 1.99142
upperneck 15.2012 4.98825 -7.2665
head 6.05408 1.9702 -2.25633
rclavicle -6.08281e-014 2.8625e-014
rhumerus 80.4502 6.66343 -3.90525
rradius 75.9279
rwrist -19.3767
rhand -8.98565 -43.4549
rfingers 7.12502
rthumb 16.9603 -72.7344
lclavicle -6.08281e-014 2.8625e-014
lhumerus -85.9361 -37.9747 61.9797
lradius 15.5719
lwrist 7.52487
lhand -1.12775 -15.4805
lfingers 7.12502
lthumb 24.5098 12.9711
rfemur -0.989583 -10.6376 16.0298
rtibia 19.1691
rfoot 2.09733 -4.11053
rtoes -59.4117
lfemur -44.9212 6.69211 -9.99791
ltibia 50.5835
lfoot 3.64364 -0.0660974
ltoes 24.8781
180
root 7.73334 19.0555 0.385635 18.203 -47.4186 -9.90791
lowerback 9.01262 3.91049 9.21626
upperback 3.91892 5.85663 2.33486
thorax -0.248288 2.96821 -3.19969
lowerneck -7.86865 2.8751 1.9727
upperneck 15.6711 4.71869 -7.15174
head 6.26463 1.82619 -2.23401
rclavicle -7.95139e-014 3.02153e-014
rhumerus 81.3304 8.88457 -8.44782
rradius 77.3464
rwrist -20.8073
rhand -13.6289 -45.338
rfingers 7.12502
rthumb 12.4869 -74.9449
lclavicle -7.95139e-014 3.02153e-014
lhumerus -86.5655 -36.048 62.5101
lradius 16.8893
lwrist 8.95065
lhand -2.20104 -15.0903
lfingers 7.12502
lthumb 23.4806 13.4968
rfemur -1.19549 -13.3061 15.9449
rtibia 21.2219
rfoot -0.814546 -4.1433
rtoes -60.8612
lfemur -45.7048 7.11482 -9.89337
ltibia 52.0141
lfoot 2.67445 -0.897219
ltoes 23.5327
181
root 7.74317 18.7633 0.474993 19.4719 -47.3938 -11.4013
lowerback 9.25868 4.12766 10.2525
upperback 4.22357 6.21693 2.5855
thorax 0.0752236 3.17287 -3.52354
lowerneck -9.58087 2.52604 2.36951
upperneck 17.5671 4.30633 -7.2275
head 7.16247 1.56479 -2.35401
rclavicle 7.51406e-014 -1.11319e-014
rhumerus 81.8686 11.5144 -11.612
rradius 79.4977
rwrist -22.1613
rhand -18.4644 -46.646
rfingers 7.12502
rthumb 7.82215 -76.4813
lclavicle 7.51406e-014 -1.11319e-014
lhumerus -87.1086 -33.7799 63.2459
lradius 19.3144
lwrist 10.8888
lhand -3.55711 -15.0575
lfingers 7.12502
lthumb 22.1792 13.6901
rfemur -1.7641 -16.0782 16.0105
rtibia 23.3708
rfoot -2.85183 -5.24161
rtoes -62.3258
lfemur -46.6259 7.84324 -9.68218
ltibia 53.855
lfoot 1.48637 -1.74498
ltoes 20.9615
182
root 7.7658 18.4323 0.557625 20.8647 -47.6991 -12.8812
lowerback 9.70816 4.46671 11.0067
upperback 4.49626 6.74409 2.99825
thorax 0.234719 3.44573 -3.55323
lowerneck -12.5092 2.10691 3.73529
upperneck 20.8655 4.01842 -9.03552
head 8.84067 1.21243 -3.25372
rclavicle -6.36111e-015 -3.18055e-015
rhumerus 82.9952 12.6521 -10.7076
rradius 80.6057
rwrist -25.3149
rhand -26.4753 -46.1318
rfingers 7.12502
rthumb 0.0866625 -76.1116
lclavicle -6.36111e-015 -3.18055e-015
lhumerus -85.6067 -30.6788 61.5708
lradius 21.5251
lwrist 10.5954
lhand -4.5016 -15.6535
lfingers 7.12502
lthumb 21.2722 13.1991
rfemur -2.89114 -18.6668 16.1044
rtibia 25.7444
rfoot -2.81901 -7.41194
rtoes -63.3139
lfemur -47.8044 8.82957 -9.60143
ltibia 56.245
lfoot -0.206811 -2.52438
ltoes 19.8322
183
root 7.79383 18.0526 0.622712 22.0761 -48.5266 -13.9543
lowerback 10.5971 5.58842 11.2503
upperback 4.59471 8.3422 3.07508
thorax 0.106293 4.23001 -3.77515
lowerneck -14.9256 1.0965 3.83989
upperneck 24.1714 2.81093 -9.23212
head 10.3782 0.517762 -3.58565
rclavicle 1.14102e-013 -4.21423e-014
rhumerus 81.0634 16.2156 -14.9408
rradius 80.7525
rwrist -25.2936
rhand -31.5462 -43.7455
rfingers 7.12502
rthumb -4.81053 -73.6709
lclavicle 1.14102e-013 -4.21423e-014
lhumerus -84.1063 -29.9359 62.4542
lradius 24.6488
lwrist 13.3248
lhand -5.0634 -16.5748
lfingers 7.12502
lthumb 20.7325 12.3377
rfemur -4.60989 -20.4388 16.0262
rtibia 28.27
rfoot -0.967368 -9.76924
rtoes -64.1064
lfemur -49.3955 10.3093 -10.1348
ltibia 59.3205
lfoot -2.27965 -3.12518
ltoes 17.6975
184
root 7.82401 17.6213 0.670761 22.9884 -49.793 -14.3816
lowerback 11.405 5.45193 11.5907
upperback 4.99121 8.24504 2.59778
thorax 0.203055 4.20772 -4.5043
lowerneck -13.7649 1.26242 2.79578
upperneck 22.6694 3.09545 -8.75639
head 9.61891 0.66445 -3.14848
rclavicle 1.82882e-014 2.70347e-014
rhumerus 82.2906 21.5268 -19.3616
rradius 80.8611
rwrist -23.9592
rhand -41.1479 -36.5486
rfingers 7.12502
rthumb -14.0742 -66.0521
lclavicle 1.82882e-014 2.70347e-014
lhumerus -81.414 -23.2317 60.1585
lradius 27.3293
lwrist 14.0486
lhand -5.53446 -18.502
lfingers 7.12502
lthumb 20.2798 10.4592
rfemur -6.95857 -21.2053 15.7314
rtibia 31.0676
rfoot 0.763082 -12.0449
rtoes -65.2085
lfemur -51.6801 12.1272 -11.5234
ltibia 63.1294
lfoot -4.52817 -3.25702
ltoes 13.085
185
root 7.8698 17.1578 0.696116 23.5054 -51.1074 -13.9982
lowerback 12.2057 6.64807 9.75189
upperback 5.33918 9.68758 2.72948
thorax 0.0214724 4.88528 -3.5727
lowerneck -10.6054 0.547846 7.33834
upperneck 18.4938 2.10183 -14.5182
head 7.62516 0.163927 -5.89826
rclavicle -1.35174e-014 3.18055e-014
rhumerus 78.9439 26.4692 -25.2839
rradius 80.4961
rwrist -21.7909
rhand -46.5476 -34.0341
rfingers 7.12502
rthumb -19.2723 -63.0991
lclavicle -1.35174e-014 3.18055e-014
lhumerus -78.6134 -19.5147 61.5018
lradius 31.6459
lwrist 15.3851
lhand -5.84499 -20.1315
lfingers 7.12502
lthumb 19.9814 8.86116
rfemur -10.0979 -21.1156 15.3407
rtibia 34.9079
rfoot 1.26249 -15.1198
rtoes -66.3255
lfemur -54.6467 13.6482 -13.6659
ltibia 67.4915
lfoot -6.61032 -3.16443
ltoes 10.995
186
root 7.93414 16.6818 0.690254 23.9324 -52.1885 -13.4095
lowerback 12.752 7.68643 9.54056
upperback 6.31933 10.964 1.39471
thorax 1.17809 5.62165 -4.87768
lowerneck -10.5579 -0.498093 8.99339
upperneck 16.6143 0.15703 -14.303
head 6.76527 -0.592577 -6.20353
rclavicle 9.54166e-015 1.98785e-014
rhumerus 74.145 29.0578 -33.3028
rradius 76.4144
rwrist -16.1845
rhand -55.9669 -15.702
rfingers 7.12502
rthumb -28.3046 -43.5832
lclavicle 9.54166e-015 1.98785e-014
lhumerus -73.3404 -16.4013 61.2827
lradius 36.2707
lwrist 15.7616
lhand -9.51993 -21.7206
lfingers 7.12502
lthumb 16.4459 7.60226
rfemur -13.4706 -18.1614 14.9544
rtibia 39.4766
rfoot 1.03156 -19.8982
rtoes -66.9928
lfemur -58.0476 14.8681 -15.9703
ltibia 72.1825
lfoot -8.39171 -3.23187
ltoes 13.4609
187
root 8.00793 16.2241 0.66895 25.863 -52.7855 -13.9548
lowerback 12.6064 6.59055 8.10852
upperback 7.63016 9.22081 1.5176
thorax 2.12217 4.76193 -3.76754
lowerneck -11.3268 0.595823 7.48302
upperneck 15.7856 1.83239 -14.3726
head 6.85703 0.0967108 -5.80573
rclavicle 1.70955e-014 -4.6118e-014
rhumerus 74.6531 34.9373 -39.5835
rradius 73.1794
rwrist -12.2018
rhand -60.9149 0.292254
rfingers 7.12502
rthumb -33.0224 -26.7032
lclavicle 1.70955e-014 -4.6118e-014
lhumerus -74.7324 -7.3566 61.6424
lradius 43.7653
lwrist 20.0125
lhand -9.0796 -25.5777
lfingers 7.12502
lthumb 16.8698 3.70954
rfemur -17.6629 -14.317 15.849
rtibia 44.009
rfoot 1.70026 -24.3803
rtoes -67.3174
lfemur -62.4202 15.9965 -17.5872
ltibia 76.9564
lfoot -10.1061 -2.74142
ltoes 15.3802
188
root 8.09045 15.8254 0.654045 29.0884 -52.7042 -14.792
lowerback 12.5911 6.65988 7.77571
upperback 8.29297 9.2054 0.81741
thorax 2.90935 4.79741 -4.24764
lowerneck -15.6979 -0.218211 1.94703
upperneck 19.5054 0.677045 -6.94526
head 8.71519 -0.295943 -2.60398
rclavicle -2.66371e-014 2.3059e-014
rhumerus 67.8337 36.8023 -50.8188
rradius 67.4858
rwrist -10.0198
rhand -61.3562 38.6038
rfingers 7.12502
rthumb -33.4419 11.6979
lclavicle -2.66371e-014 2.3059e-014
lhumerus -67.9556 -1.78325 63.9197
lradius 47.5636
lwrist 19.422
lhand -12.7942 -14.3121
lfingers 7.12502
lthumb 13.2916 15.244
rfemur -22.2971 -10.389 16.9706
rtibia 47.4245
rfoot 2.07901 -28.6217
rtoes -67.5771
lfemur -67.8733 16.2924 -18.9836
ltibia 81.0828
lfoot -11.0327 -2.43066
ltoes 15.177
189
root 8.16871 15.523 0.666092 32.8354 -51.652 -15.6093
lowerback 12.3738 5.53103 6.73972
upperback 8.8725 7.55713 0.439747
thorax 3.32833 3.95899 -3.92441
lowerneck -18.8558 0.603825 2.39982
upperneck 21.4515 2.00023 -7.84772
head 10.0658 0.162099 -2.90028
rclavicle 1.53064e-013 -5.76476e-014
rhumerus 61.6875 40.1073 -60.1968
rradius 62.4891
rwrist -6.54989
rhand -63.0725 49.3203
rfingers 7.12502
rthumb -35.0717 22.781
lclavicle 1.53064e-013 -5.76476e-014
lhumerus -60.7004 6.15452 66.3553
lradius 52.1716
lwrist 22.4437
lhand -10.7431 -15.4483
lfingers 7.12502
lthumb 15.2679 13.9682
rfemur -26.1572 -7.94841 18.0944
rtibia 48.8169
rfoot 3.17087 -32.5478
rtoes -67.7426
lfemur -73.1485 15.3762 -19.6964
ltibia 83.502
lfoot -11.9197 -2.04225
ltoes 14.314
